<svg xmlns="http://www.w3.org/2000/svg" width="180" height="180" viewBox="0 0 180 180" role="img" aria-label="Saude em Acao iOS">
  <defs>
    <linearGradient id="ga" x1="0" y1="0" x2="1" y2="1">
      <stop offset="0%" stop-color="#0f766e" />
      <stop offset="100%" stop-color="#14b8a6" />
    </linearGradient>
  </defs>
  <rect width="180" height="180" rx="40" fill="url(#ga)" />
  <path d="M90 34c-6.6 0-12 5.4-12 12v26H52c-6.6 0-12 5.4-12 12s5.4 12 12 12h26v26c0 6.6 5.4 12 12 12s12-5.4 12-12V96h26c6.6 0 12-5.4 12-12s-5.4-12-12-12h-26V46c0-6.6-5.4-12-12-12z" fill="#ecfeff" />
</svg>