<svg xmlns="http://www.w3.org/2000/svg" width="512" height="512" viewBox="0 0 512 512" role="img" aria-label="Saude em Acao maskable">
  <defs>
    <linearGradient id="gm" x1="0" y1="0" x2="1" y2="1">
      <stop offset="0%" stop-color="#0f766e" />
      <stop offset="100%" stop-color="#2dd4bf" />
    </linearGradient>
  </defs>
  <rect width="512" height="512" fill="url(#gm)" />
  <circle cx="256" cy="256" r="164" fill="#ccfbf1" opacity="0.22" />
  <path d="M256 136c-15.5 0-28 12.5-28 28v64h-64c-15.5 0-28 12.5-28 28s12.5 28 28 28h64v64c0 15.5 12.5 28 28 28s28-12.5 28-28v-64h64c15.5 0 28-12.5 28-28s-12.5-28-28-28h-64v-64c0-15.5-12.5-28-28-28z" fill="#f8fafc" />
</svg>