<svg xmlns="http://www.w3.org/2000/svg" width="512" height="512" viewBox="0 0 512 512" role="img" aria-label="Saude em Acao">
  <defs>
    <linearGradient id="g512" x1="0" y1="0" x2="1" y2="1">
      <stop offset="0%" stop-color="#134e4a" />
      <stop offset="100%" stop-color="#0d9488" />
    </linearGradient>
  </defs>
  <rect width="512" height="512" rx="112" fill="url(#g512)" />
  <path d="M256 96c-17.7 0-32 14.3-32 32v80h-80c-17.7 0-32 14.3-32 32s14.3 32 32 32h80v80c0 17.7 14.3 32 32 32s32-14.3 32-32v-80h80c17.7 0 32-14.3 32-32s-14.3-32-32-32h-80v-80c0-17.7-14.3-32-32-32z" fill="#ecfeff" />
</svg>