<svg xmlns="http://www.w3.org/2000/svg" width="192" height="192" viewBox="0 0 192 192" role="img" aria-label="Saude em Acao">
  <defs>
    <linearGradient id="g192" x1="0" y1="0" x2="1" y2="1">
      <stop offset="0%" stop-color="#115e59" />
      <stop offset="100%" stop-color="#14b8a6" />
    </linearGradient>
  </defs>
  <rect width="192" height="192" rx="42" fill="url(#g192)" />
  <path d="M96 36c-6.6 0-12 5.4-12 12v30H54c-6.6 0-12 5.4-12 12s5.4 12 12 12h30v30c0 6.6 5.4 12 12 12s12-5.4 12-12v-30h30c6.6 0 12-5.4 12-12s-5.4-12-12-12h-30V48c0-6.6-5.4-12-12-12z" fill="#ecfeff" />
</svg>